<?xml version="1.0" encoding="utf-8"?>
<!-- Generator: Adobe Illustrator 24.1.3, SVG Export Plug-In . SVG Version: 6.00 Build 0)  -->
<svg version="1.1" id="Layer_1" xmlns="http://www.w3.org/2000/svg" xmlns:xlink="http://www.w3.org/1999/xlink" x="0px" y="0px"
	 viewBox="0 0 1920 1080" style="enable-background:new 0 0 1920 1080;" xml:space="preserve" >
<style type="text/css">
	.st0{fill:#FFFFFF;}
</style>
<path class="st0" d="M388.37,462.99H205.73l-4.57,53.94h4.02c2.58-12.55,6.42-21.96,11.49-28.24c5.08-6.28,10.41-10.19,15.99-11.75
	c5.58-1.56,11.84-2.34,18.76-2.34h73.94l-56.62,83.87l76.22-31.39L388.37,462.99z"/>
<path class="st0" d="M388.09,619.28c-2.86,8.12-5.72,14.63-8.58,19.54c-2.86,4.91-6.35,8.94-10.45,12.1
	c-4.11,3.16-9.14,5.45-15.09,6.87c-5.95,1.42-13.22,2.12-21.81,2.12h-77.13l71.01-104.87L249.9,586.4l-57.46,85.12h192.47
	l7.06-52.24H388.09z"/>
<g>
	<path class="st0" d="M441.97,618.51l16.85-1.8c0.9,9.06,2.94,16.12,6.12,21.17c3.18,5.05,7.73,9.12,13.65,12.19
		c5.91,3.07,12.58,4.6,19.99,4.6c10.63,0,18.88-2.6,24.76-7.79c5.88-5.19,8.82-11.94,8.82-20.23c0-4.86-1.07-9.09-3.2-12.72
		c-2.13-3.62-5.35-6.59-9.66-8.91c-4.31-2.32-13.61-5.59-27.91-9.82c-12.73-3.78-21.79-7.58-27.18-11.4s-9.58-8.67-12.58-14.54
		c-3-5.88-4.49-12.52-4.49-19.93c0-13.33,4.3-24.22,12.92-32.68c8.61-8.46,20.21-12.69,34.81-12.69c10.03,0,18.81,1.98,26.34,5.95
		c7.52,3.97,13.36,9.66,17.52,17.07s6.38,16.13,6.68,26.17l-17.18,1.57c-0.9-10.71-4.1-18.64-9.6-23.81s-13.23-7.75-23.19-7.75
		c-10.11,0-17.82,2.27-23.13,6.79c-5.32,4.53-7.97,10.39-7.97,17.57c0,6.67,1.95,11.83,5.84,15.5c3.89,3.67,12.65,7.38,26.27,11.14
		c13.32,3.69,22.67,6.88,28.06,9.59c8.23,4.21,14.45,9.74,18.65,16.58c4.2,6.84,6.3,15.01,6.3,24.51c0,9.42-2.21,18.01-6.63,25.75
		c-4.42,7.74-10.43,13.63-18.02,17.67c-7.6,4.04-16.75,6.06-27.46,6.06c-16.7,0-30-5.02-39.92-15.05
		C447.49,649.25,442.34,635.66,441.97,618.51z"/>
	<path class="st0" d="M571.79,671.52V506.88h16.51v94.04l39.35-48.67h21.46l-37.41,44.29l41.12,74.98h-20.33L600,610.39l-11.7,13.85
		v47.28H571.79z"/>
	<path class="st0" d="M665.79,530.13v-23.25h16.51v23.25H665.79z M665.79,671.52V552.25h16.51v119.27H665.79z"/>
	<path class="st0" d="M707.68,671.52V552.25h14.94v16.85c3.59-6.55,7.98-11.45,13.17-14.68c5.19-3.24,11.15-4.86,17.88-4.86
		c5.23,0,10.07,1.03,14.52,3.09c4.45,2.06,8.03,4.76,10.76,8.09c2.73,3.33,4.76,7.66,6.11,12.97c1.34,5.32,2.02,13.48,2.02,24.48
		v73.33h-16.51v-72.63c0-8.77-0.75-15.18-2.25-19.23c-1.5-4.05-3.84-7.18-7.02-9.39c-3.18-2.21-6.87-3.32-11.06-3.32
		c-7.94,0-14.26,2.96-18.98,8.88c-4.72,5.92-7.08,16.08-7.08,30.47v65.21H707.68z"/>
</g>
<g>
	<path class="st0" d="M936.79,613.79l17.97,5.5c-3.97,18.49-10.91,32.29-20.83,41.38c-9.92,9.1-21.99,13.65-36.22,13.65
		c-12.5,0-23.19-3.05-32.06-9.16c-8.87-6.11-16.13-15.9-21.79-29.39c-5.65-13.49-8.48-29.41-8.48-47.76
		c0-18.13,2.83-33.47,8.49-46.02c5.66-12.55,13.32-22.03,22.99-28.43c9.67-6.41,20.46-9.61,32.38-9.61
		c13.04,0,24.24,4.05,33.61,12.16c9.37,8.1,15.92,20,19.67,35.68l-17.52,5.05c-6-22.83-18.03-34.25-36.1-34.25
		c-9,0-16.79,2.31-23.39,6.91c-6.6,4.61-11.87,11.78-15.8,21.52c-3.94,9.74-5.9,22.07-5.9,36.98c0,22.56,3.97,39.47,11.9,50.75
		c7.93,11.28,18.49,16.92,31.67,16.92c9.73,0,18.14-3.46,25.21-10.39C929.65,638.37,934.39,627.87,936.79,613.79z"/>
	<path class="st0" d="M1038.42,656.8c-5.54,5.77-11.31,10.11-17.29,13.03c-5.99,2.92-12.2,4.38-18.64,4.38
		c-10.18,0-18.31-3.07-24.37-9.21c-6.06-6.14-9.1-14.41-9.1-24.82c0-6.89,1.42-12.99,4.27-18.31c2.84-5.32,6.74-9.47,11.68-12.47
		c4.94-2.99,12.43-5.2,22.46-6.63c13.48-1.98,23.36-4.34,29.65-7.08l0.11-5.17c0-8.16-1.46-13.89-4.38-17.18
		c-4.12-4.79-10.44-7.19-18.98-7.19c-7.71,0-13.48,1.6-17.29,4.8s-6.63,9.2-8.42,18l-16.28-2.7c2.32-12.8,7.02-22.12,14.09-27.96
		c7.07-5.84,17.2-8.76,30.38-8.76c10.26,0,18.31,1.93,24.15,5.78c5.84,3.86,9.53,8.63,11.06,14.32c1.53,5.69,2.3,14,2.3,24.93v26.95
		c0,18.87,0.35,30.75,1.07,35.66c0.71,4.9,2.11,9.68,4.21,14.32h-17.29C1040.07,667.4,1038.94,662.5,1038.42,656.8z M1037.07,611.66
		c-6.06,3-15.09,5.54-27.07,7.64c-6.96,1.2-11.83,2.57-14.6,4.1c-2.77,1.54-4.92,3.71-6.46,6.51c-1.54,2.81-2.3,6.05-2.3,9.71
		c0,5.69,1.76,10.24,5.28,13.64c3.52,3.41,8.38,5.11,14.6,5.11c5.91,0,11.29-1.53,16.12-4.6c4.83-3.07,8.44-7.17,10.84-12.3
		c2.4-5.13,3.59-12.6,3.59-22.41V611.66z"/>
	<path class="st0" d="M1079.64,671.52V552.25h14.94v18.08c3.82-8.38,7.32-13.94,10.5-16.68c3.18-2.73,6.76-4.1,10.73-4.1
		c5.54,0,11.19,2.17,16.96,6.51l-5.62,18.75c-4.12-2.92-8.13-4.38-12.02-4.38c-3.52,0-6.74,1.24-9.66,3.71s-4.98,5.92-6.18,10.33
		c-2.1,7.71-3.14,15.91-3.14,24.59v62.44H1079.64z"/>
	<path class="st0" d="M1209.24,633.11l17.07,2.58c-2.85,12.73-7.99,22.33-15.44,28.81c-7.45,6.48-16.68,9.71-27.68,9.71
		c-13.85,0-25.06-5.26-33.63-15.78c-8.57-10.52-12.86-25.7-12.86-45.54c0-20.59,4.32-36.29,12.97-47.11
		c8.65-10.82,19.6-16.23,32.85-16.23c12.65,0,23.21,5.32,31.67,15.95c8.46,10.63,12.69,26.02,12.69,46.16l-0.11,5.39h-73
		c0.67,13.4,3.78,23.51,9.32,30.32c5.54,6.81,12.28,10.22,20.21,10.22C1195.72,657.59,1204.37,649.43,1209.24,633.11z
		 M1154.77,600.43h54.58c-0.75-10.33-2.96-18.04-6.63-23.13c-5.32-7.41-12.09-11.12-20.33-11.12c-7.41,0-13.74,3.09-18.98,9.27
		C1158.18,581.62,1155.29,589.95,1154.77,600.43z"/>
</g>
<g>
	<path class="st0" d="M1376.22,613.79l17.97,5.5c-3.97,18.49-10.91,32.29-20.83,41.38c-9.92,9.1-21.99,13.65-36.22,13.65
		c-12.5,0-23.19-3.05-32.06-9.16c-8.87-6.11-16.13-15.9-21.79-29.39c-5.65-13.49-8.48-29.41-8.48-47.76
		c0-18.13,2.83-33.47,8.49-46.02c5.66-12.55,13.32-22.02,22.99-28.43c9.67-6.4,20.46-9.61,32.38-9.61
		c13.04,0,24.24,4.05,33.61,12.16c9.37,8.1,15.92,20,19.67,35.68l-17.52,5.05c-6-22.83-18.03-34.25-36.1-34.25
		c-9,0-16.79,2.31-23.39,6.91c-6.6,4.61-11.87,11.78-15.8,21.52c-3.94,9.74-5.9,22.07-5.9,36.98c0,22.56,3.97,39.47,11.9,50.75
		c7.93,11.28,18.49,16.92,31.67,16.92c9.73,0,18.14-3.46,25.21-10.39C1369.09,638.37,1373.82,627.87,1376.22,613.79z"/>
	<path class="st0" d="M1481,633.11l17.07,2.58c-2.85,12.73-7.99,22.33-15.44,28.81c-7.45,6.48-16.68,9.71-27.68,9.71
		c-13.85,0-25.06-5.26-33.63-15.78c-8.57-10.52-12.86-25.7-12.86-45.54c0-20.59,4.32-36.29,12.97-47.11
		c8.65-10.82,19.6-16.23,32.85-16.23c12.65,0,23.21,5.32,31.67,15.95c8.46,10.63,12.69,26.02,12.69,46.16l-0.11,5.39h-73
		c0.67,13.4,3.78,23.51,9.32,30.32c5.54,6.81,12.28,10.22,20.21,10.22C1467.49,657.59,1476.13,649.43,1481,633.11z M1426.53,600.43
		h54.58c-0.75-10.33-2.96-18.04-6.63-23.13c-5.32-7.41-12.09-11.12-20.33-11.12c-7.41,0-13.74,3.09-18.98,9.26
		C1429.94,581.62,1427.06,589.95,1426.53,600.43z"/>
	<path class="st0" d="M1519.07,671.52V552.25h14.94v16.85c3.59-6.55,7.98-11.45,13.17-14.68s11.15-4.86,17.88-4.86
		c5.23,0,10.07,1.03,14.52,3.09c4.45,2.06,8.04,4.76,10.76,8.09c2.73,3.33,4.76,7.66,6.11,12.97c1.34,5.32,2.02,13.48,2.02,24.48
		v73.33h-16.51v-72.63c0-8.77-0.75-15.18-2.25-19.23c-1.5-4.05-3.84-7.18-7.02-9.39c-3.18-2.21-6.87-3.32-11.06-3.32
		c-7.94,0-14.26,2.96-18.98,8.88c-4.72,5.92-7.08,16.08-7.08,30.47v65.21H1519.07z"/>
	<path class="st0" d="M1660.8,653.44l2.25,17.86c-4.57,1.2-8.69,1.8-12.35,1.8c-5.77,0-10.41-1.14-13.93-3.43
		c-3.52-2.28-5.93-5.41-7.24-9.38c-1.31-3.97-1.97-11.87-1.97-23.7v-68.62h-12.13v-15.72h12.13v-29.54l16.51-12.13v41.67h16.73
		v15.72h-16.73v69.74c0,6.44,0.49,10.59,1.46,12.47c1.42,2.7,4.08,4.04,7.97,4.04C1655.37,654.22,1657.81,653.96,1660.8,653.44z"/>
	<path class="st0" d="M1743.23,633.11l17.07,2.58c-2.85,12.73-7.99,22.33-15.44,28.81c-7.45,6.48-16.68,9.71-27.68,9.71
		c-13.85,0-25.06-5.26-33.63-15.78c-8.57-10.52-12.86-25.7-12.86-45.54c0-20.59,4.32-36.29,12.97-47.11
		c8.65-10.82,19.6-16.23,32.85-16.23c12.65,0,23.21,5.32,31.67,15.95c8.46,10.63,12.69,26.02,12.69,46.16l-0.11,5.39h-73
		c0.67,13.4,3.78,23.51,9.32,30.32c5.54,6.81,12.28,10.22,20.21,10.22C1729.72,657.59,1738.37,649.43,1743.23,633.11z
		 M1688.77,600.43h54.58c-0.75-10.33-2.96-18.04-6.63-23.13c-5.32-7.41-12.09-11.12-20.33-11.12c-7.41,0-13.74,3.09-18.98,9.26
		C1692.17,581.62,1689.29,589.95,1688.77,600.43z"/>
	<path class="st0" d="M1781.3,671.52V552.25h14.94v18.08c3.82-8.38,7.32-13.94,10.5-16.68c3.18-2.73,6.76-4.1,10.73-4.1
		c5.54,0,11.19,2.17,16.96,6.51l-5.62,18.75c-4.12-2.92-8.13-4.38-12.02-4.38c-3.52,0-6.74,1.24-9.66,3.71s-4.98,5.92-6.18,10.33
		c-2.1,7.71-3.14,15.91-3.14,24.59v62.44H1781.3z"/>
</g>
</svg>
