<svg width="50" height="51" viewBox="0 0 50 51" fill="none" xmlns="http://www.w3.org/2000/svg">
<path d="M33.7295 5.14612H16.2712C8.68783 5.14612 4.16699 9.66695 4.16699 17.2503V34.6878C4.16699 42.292 8.68783 46.8128 16.2712 46.8128H33.7087C41.292 46.8128 45.8128 42.292 45.8128 34.7086V17.2503C45.8337 9.66695 41.3128 5.14612 33.7295 5.14612ZM29.0003 35.6253H18.7503C17.8962 35.6253 17.1878 34.917 17.1878 34.0628C17.1878 33.2086 17.8962 32.5003 18.7503 32.5003H29.0003C31.667 32.5003 33.8545 30.3336 33.8545 27.6461C33.8545 24.9586 31.6878 22.792 29.0003 22.792H18.4378L18.9795 23.3336C19.5837 23.9378 19.5837 24.9378 18.9795 25.542C18.667 25.8545 18.2712 26.0003 17.8753 26.0003C17.4795 26.0003 17.0837 25.8545 16.7712 25.542L13.5003 22.2711C13.2097 21.9771 13.0468 21.5803 13.0468 21.167C13.0468 20.7536 13.2097 20.3568 13.5003 20.0628L16.7712 16.792C17.3753 16.1878 18.3753 16.1878 18.9795 16.792C19.5837 17.3961 19.5837 18.3961 18.9795 19.0003L18.2712 19.6878H29.0003C33.3962 19.6878 36.9795 23.2711 36.9795 27.667C36.9795 32.0628 33.3962 35.6253 29.0003 35.6253Z" fill="#6537AE"/>
</svg>
