<svg width="40" height="40" viewBox="0 0 40 40" fill="none" xmlns="http://www.w3.org/2000/svg">
<path d="M36.6668 26.9835C36.6668 33.0502 33.0502 36.6668 26.9835 36.6668H25.0002C24.0835 36.6668 23.3335 35.9168 23.3335 35.0002V25.3835C23.3335 24.9335 23.7002 24.5502 24.1502 24.5502L27.0835 24.5002C27.3168 24.4835 27.5168 24.3168 27.5668 24.0835L28.1502 20.9002C28.1615 20.828 28.157 20.7543 28.1371 20.684C28.1172 20.6137 28.0822 20.5486 28.0347 20.4932C27.9872 20.4377 27.9282 20.3932 27.8618 20.3628C27.7954 20.3324 27.7232 20.3167 27.6502 20.3168L24.1002 20.3668C23.6335 20.3668 23.2668 20.0002 23.2502 19.5502L23.1835 15.4668C23.1835 15.2002 23.4002 14.9668 23.6835 14.9668L27.6835 14.9002C27.9668 14.9002 28.1835 14.6835 28.1835 14.4002L28.1168 10.4002C28.1168 10.1168 27.9002 9.90016 27.6168 9.90016L23.1168 9.96683C22.4599 9.97681 21.8115 10.1163 21.2086 10.3774C20.6057 10.6384 20.0602 11.0159 19.6035 11.4881C19.1468 11.9603 18.7877 12.518 18.5469 13.1293C18.3061 13.7405 18.1882 14.3933 18.2002 15.0502L18.2835 19.6335C18.3002 20.1002 17.9335 20.4668 17.4668 20.4835L15.4668 20.5168C15.1835 20.5168 14.9668 20.7335 14.9668 21.0168L15.0168 24.1835C15.0168 24.4668 15.2335 24.6835 15.5168 24.6835L17.5168 24.6502C17.9835 24.6502 18.3502 25.0168 18.3668 25.4668L18.5168 34.9668C18.5335 35.9002 17.7835 36.6668 16.8502 36.6668H13.0168C6.95016 36.6668 3.3335 33.0502 3.3335 26.9668V13.0168C3.3335 6.95016 6.95016 3.3335 13.0168 3.3335H26.9835C33.0502 3.3335 36.6668 6.95016 36.6668 13.0168V26.9835Z" fill="#F5F5F7"/>
</svg>
