<svg width="40" height="40" viewBox="0 0 40 40" fill="none" xmlns="http://www.w3.org/2000/svg">
<path d="M26.9835 3.3335H13.0168C6.95016 3.3335 3.3335 6.95016 3.3335 13.0168V26.9668C3.3335 33.0502 6.95016 36.6668 13.0168 36.6668H26.9668C33.0335 36.6668 36.6502 33.0502 36.6502 26.9835V13.0168C36.6668 6.95016 33.0502 3.3335 26.9835 3.3335ZM20.0002 26.4668C16.4335 26.4668 13.5335 23.5668 13.5335 20.0002C13.5335 16.4335 16.4335 13.5335 20.0002 13.5335C23.5668 13.5335 26.4668 16.4335 26.4668 20.0002C26.4668 23.5668 23.5668 26.4668 20.0002 26.4668ZM29.8668 11.4668C29.7835 11.6668 29.6668 11.8502 29.5168 12.0168C29.3502 12.1668 29.1668 12.2835 28.9668 12.3668C28.6635 12.4956 28.3287 12.531 28.0052 12.4687C27.6816 12.4064 27.3839 12.2491 27.1502 12.0168C27.0002 11.8502 26.8835 11.6668 26.8002 11.4668C26.7146 11.2665 26.6692 11.0513 26.6668 10.8335C26.6668 10.6168 26.7168 10.4002 26.8002 10.2002C26.8835 9.9835 27.0002 9.81683 27.1502 9.65016C27.5335 9.26683 28.1168 9.0835 28.6502 9.20016C28.7668 9.21683 28.8668 9.25016 28.9668 9.30016C29.0668 9.3335 29.1668 9.3835 29.2668 9.45016C29.3502 9.50016 29.4335 9.5835 29.5168 9.65016C29.6668 9.81683 29.7835 9.9835 29.8668 10.2002C29.9502 10.4002 30.0002 10.6168 30.0002 10.8335C30.0002 11.0502 29.9502 11.2668 29.8668 11.4668Z" fill="#F5F5F7"/>
</svg>
